<?xml version="1.0" standalone="no"?>
<!DOCTYPE svg PUBLIC "-//W3C//DTD SVG 20010904//EN"
 "http://www.w3.org/TR/2001/REC-SVG-20010904/DTD/svg10.dtd">
<svg version="1.0" xmlns="http://www.w3.org/2000/svg"
 width="100.000000pt" height="100.000000pt" viewBox="0 0 100.000000 100.000000"
 preserveAspectRatio="xMidYMid meet">
<metadata>
Created by potrace 1.11, written by Peter Selinger 2001-2013
</metadata>
<g transform="translate(0.000000,100.000000) scale(0.100000,-0.100000)"
fill="#000000" stroke="none">
<path d="M355 934 c-60 -36 -136 -81 -169 -99 -77 -42 -114 -79 -121 -118 -4
-18 -5 -126 -3 -242 3 -192 5 -212 23 -236 11 -15 72 -57 135 -94 63 -37 144
-85 180 -106 92 -56 109 -53 300 61 194 115 214 130 226 171 5 19 10 130 9
246 -1 253 4 241 -131 320 -49 28 -94 56 -101 62 -7 6 -15 11 -17 11 -3 0 -36
19 -73 41 -105 65 -126 63 -258 -17z m264 -13 c45 -28 84 -51 85 -51 14 0 183
-112 194 -128 13 -20 12 -21 -10 -19 -32 3 -370 -205 -388 -238 -18 -34 -18
-428 0 -450 31 -38 -36 -8 -200 88 -117 69 -182 114 -196 135 -21 30 -22 42
-20 249 1 201 3 220 21 245 11 15 23 28 27 28 3 0 81 45 173 99 134 80 173 99
199 96 18 -1 70 -26 115 -54z"/>
</g>
</svg>
